<svg width="108" height="108" viewBox="0 0 108 108" fill="none" xmlns="http://www.w3.org/2000/svg">
<path d="M42.1088 39.8535V76.1351H57.6214L59.8009 65.0455H65.2495V80.9427H27.75V77.2248L33.7756 75.8787V39.8535L27.75 38.5073V34.7894H48.7754V38.5073L42.1088 39.8535Z" fill="#48435C"/>
<g clip-path="url(#clip0_108_1010)">
<path d="M70.421 27.25C71.3026 27.25 72.1842 27.25 73.0925 27.25C73.0948 29.7055 73.0966 32.161 73.0976 34.6165C73.0977 34.9066 73.0979 35.1968 73.098 35.487C73.098 35.5447 73.098 35.6025 73.0981 35.662C73.0985 36.5962 73.0993 37.5304 73.1002 38.4647C73.1011 39.4239 73.1017 40.3831 73.1019 41.3424C73.102 41.9338 73.1024 42.5253 73.1032 43.1168C73.1037 43.5228 73.1039 43.9289 73.1038 44.335C73.1037 44.569 73.1038 44.803 73.1043 45.0369C73.1048 45.2518 73.1048 45.4666 73.1045 45.6814C73.1045 45.7585 73.1046 45.8356 73.1049 45.9128C73.1065 46.3179 73.0916 46.7165 73.0477 47.1194C73.0438 47.1557 73.0399 47.1919 73.0358 47.2293C72.8497 48.7912 71.9027 50.2703 70.6882 51.2418C69.3317 52.2865 67.7558 52.7694 66.0387 52.5577C64.9673 52.364 64.0038 51.7697 63.3462 50.8984C62.8285 50.1507 62.5502 49.3332 62.5052 48.4247C62.5021 48.3737 62.5021 48.3737 62.499 48.3215C62.449 46.6918 63.1816 45.1671 64.2686 43.9936C65.1546 43.0647 66.2612 42.4505 67.502 42.1416C67.5505 42.1293 67.599 42.1171 67.6489 42.1045C68.5803 41.9118 69.5311 42.0428 70.421 42.3395C70.421 37.36 70.421 32.3804 70.421 27.25Z" fill="#48435C"/>
</g>
<defs>
<clipPath id="clip0_108_1010">
<rect width="25.3305" height="25.3305" fill="white" transform="translate(55.1338 27.25)"/>
</clipPath>
</defs>
</svg>
