<svg width="211" height="215" viewBox="0 0 211 215" fill="none" xmlns="http://www.w3.org/2000/svg">
<path d="M57.4352 50.414V195.54H119.486L128.204 151.182H149.998V214.771H0V199.899L24.1023 194.515V50.414L0 45.0294V30.1578H84.1015V45.0294L57.4352 50.414Z" fill="#48435C"/>
<g clip-path="url(#clip0_21427_1168)">
<path d="M170.684 0C174.211 0 177.737 0 181.37 0C181.379 9.82193 181.386 19.6439 181.391 29.4658C181.391 30.6265 181.392 31.7872 181.392 32.9478C181.392 33.1789 181.392 33.41 181.392 33.648C181.394 37.3849 181.397 41.1217 181.401 44.8586C181.405 48.6955 181.407 52.5325 181.408 56.3695C181.408 58.7353 181.41 61.1012 181.413 63.467C181.415 65.0914 181.416 66.7158 181.415 68.3401C181.415 69.276 181.415 70.2119 181.418 71.1478C181.42 72.007 181.42 72.8663 181.418 73.7256C181.418 74.0341 181.419 74.3426 181.42 74.651C181.426 76.2715 181.367 77.8659 181.191 79.4778C181.175 79.6227 181.16 79.7677 181.143 79.9171C180.399 86.1648 176.611 92.0813 171.753 95.9674C166.327 100.146 160.023 102.078 153.155 101.231C148.869 100.456 145.016 98.079 142.385 94.5937C140.314 91.6026 139.201 88.3327 139.021 84.699C139.009 84.4947 139.009 84.4947 138.996 84.2862C138.796 77.767 141.726 71.6683 146.075 66.9743C149.619 63.2588 154.045 60.802 159.008 59.5663C159.202 59.5174 159.396 59.4684 159.596 59.4179C163.322 58.6471 167.125 59.1714 170.684 60.3579C170.684 40.4398 170.684 20.5217 170.684 0Z" fill="#48435C"/>
</g>
<defs>
<clipPath id="clip0_21427_1168">
<rect width="101.322" height="101.322" fill="white" transform="translate(109.535)"/>
</clipPath>
</defs>
</svg>
