<svg width="108" height="108" viewBox="0 0 108 108" fill="none" xmlns="http://www.w3.org/2000/svg">
<path d="M43.001 36.6117V80.8331H61.9084L64.5648 67.3167H71.2059V86.6928H25.5V82.1613L32.8442 80.5206V36.6117L25.5 34.971V30.4395H51.1265V34.971L43.001 36.6117Z" fill="#48435C"/>
<path d="M77.5091 21.25C78.5837 21.25 79.6582 21.25 80.7653 21.25C80.7681 24.2428 80.7702 27.2357 80.7715 30.2285C80.7716 30.5822 80.7718 30.9358 80.7719 31.2895C80.772 31.3599 80.772 31.4303 80.772 31.5029C80.7726 32.6415 80.7735 33.7802 80.7746 34.9188C80.7758 36.088 80.7764 37.2571 80.7767 38.4263C80.7768 39.1472 80.7774 39.8681 80.7783 40.589C80.779 41.084 80.7792 41.5789 80.779 42.0739C80.7789 42.3591 80.7791 42.6442 80.7797 42.9294C80.7803 43.1912 80.7803 43.453 80.7799 43.7149C80.7799 43.8089 80.78 43.9029 80.7804 43.9969C80.7823 44.4907 80.7642 44.9765 80.7107 45.4676C80.7059 45.5118 80.7011 45.556 80.6962 45.6015C80.4693 47.5052 79.3151 49.308 77.8349 50.4922C76.1815 51.7654 74.2607 52.354 72.1678 52.096C70.862 51.8599 69.6876 51.1356 68.8861 50.0736C68.2551 49.1622 67.9159 48.1658 67.861 47.0586C67.8573 46.9963 67.8573 46.9963 67.8535 46.9328C67.7926 44.9463 68.6854 43.088 70.0103 41.6577C71.0902 40.5256 72.439 39.777 73.9514 39.4004C74.0105 39.3855 74.0695 39.3706 74.1304 39.3552C75.2657 39.1203 76.4245 39.2801 77.5091 39.6416C77.5091 33.5724 77.5091 27.5032 77.5091 21.25Z" fill="#61E786"/>
</svg>
