<svg width="108" height="108" viewBox="0 0 108 108" fill="none" xmlns="http://www.w3.org/2000/svg">
<path d="M43.001 36.6117V80.8331H61.9084L64.5648 67.3167H71.2059V86.6928H25.5V82.1613L32.8442 80.5206V36.6117L25.5 34.971V30.4395H51.1265V34.971L43.001 36.6117Z" fill="#48435C"/>
<g clip-path="url(#clip0_21427_73)">
<path d="M77.509 21.25C78.5836 21.25 79.6581 21.25 80.7652 21.25C80.768 24.2428 80.7701 27.2357 80.7714 30.2285C80.7715 30.5822 80.7717 30.9358 80.7718 31.2895C80.7719 31.3599 80.7719 31.4303 80.7719 31.5029C80.7725 32.6415 80.7734 33.7802 80.7745 34.9188C80.7757 36.088 80.7763 37.2571 80.7766 38.4263C80.7767 39.1472 80.7773 39.8681 80.7782 40.589C80.7789 41.084 80.7791 41.5789 80.7789 42.0739C80.7788 42.3591 80.779 42.6442 80.7796 42.9294C80.7802 43.1912 80.7802 43.453 80.7798 43.7149C80.7798 43.8089 80.7799 43.9029 80.7803 43.9969C80.7822 44.4907 80.7641 44.9765 80.7106 45.4676C80.7058 45.5118 80.701 45.556 80.6961 45.6015C80.4692 47.5052 79.315 49.308 77.8348 50.4922C76.1814 51.7654 74.2606 52.354 72.1677 52.096C70.8619 51.8599 69.6875 51.1356 68.886 50.0736C68.255 49.1622 67.9158 48.1658 67.8609 47.0586C67.8572 46.9963 67.8572 46.9963 67.8534 46.9328C67.7925 44.9463 68.6853 43.088 70.0102 41.6577C71.0901 40.5256 72.4389 39.777 73.9513 39.4004C74.0104 39.3855 74.0694 39.3706 74.1303 39.3552C75.2656 39.1203 76.4244 39.2801 77.509 39.6416C77.509 33.5724 77.509 27.5032 77.509 21.25Z" fill="#61E786"/>
</g>
<defs>
<clipPath id="clip0_21427_73">
<rect width="30.8738" height="30.8738" fill="white" transform="translate(58.8762 21.25)"/>
</clipPath>
</defs>
</svg>
